<?xml version="1.0" encoding="UTF-8"?><svg id="Layer_2" xmlns="http://www.w3.org/2000/svg" viewBox="0 0 80.24 8.18"><defs><style>.cls-1{fill:#231f20;}</style></defs><g id="Layer_1-2"><path class="cls-1" d="M5.32,0h1.94c1.42.01,2.4.25,2.92.72.52.47.79,1.42.79,2.83v.38c0,1.66-.21,2.78-.62,3.34-.42.56-1.47.85-3.16.85l-1.84.04h-.77s-1.66-.05-1.66-.05c-.93,0-1.64-.21-2.15-.63C.28,7.06.02,6.38.02,5.45l-.02-1.48C0,2.35.21,1.29.62.79,1.04.29,2.03.04,3.59.04l1.73-.04ZM4,6.18l1.31.02h1.25c.69-.01,1.18-.09,1.48-.23.3-.15.45-.52.45-1.1l.02-1.08c0-.37-.02-.68-.07-.95-.04-.26-.13-.45-.27-.58-.14-.12-.34-.21-.61-.25-.27-.04-.55-.06-.86-.06h-2.42c-.55.01-.97.07-1.26.18s-.45.35-.5.72-.07.67-.07.91v.54c0,.74.09,1.24.26,1.49s.6.38,1.28.38Z"/><path class="cls-1" d="M23.16,4.66v.47c0,1.25-.33,2.07-.98,2.47-.65.4-1.66.59-3.02.59h-1.99c-1.05-.01-1.86-.07-2.42-.18-.56-.11-1.01-.4-1.36-.85-.34-.46-.52-1.17-.52-2.15V.1h2.44v4.19c0,.8.1,1.32.29,1.56.19.24.68.36,1.45.36h1.09s1.01,0,1.01,0c.66,0,1.09-.1,1.28-.31s.28-.63.28-1.26V.1h2.45v4.56Z"/><path class="cls-1" d="M28.09,8.09V2.09h-3.58V.08h9.58v2h-3.56v6h-2.44Z"/><path class="cls-1" d="M41.94.08c1.21,0,2.05.2,2.51.59s.7,1.18.7,2.36c0,1.12-.18,1.91-.55,2.37-.36.46-1.13.69-2.29.69h-4.43v1.99h-2.44V.08h6.48ZM42.7,3.12c0-.45-.1-.74-.29-.88-.19-.14-.53-.21-1.01-.21h-3.5v2.12h3.54c.46,0,.79-.07.98-.2.19-.13.28-.41.28-.83Z"/><path class="cls-1" d="M52.03,0h1.94c1.42.01,2.4.25,2.92.72.52.47.79,1.42.79,2.83v.38c0,1.66-.21,2.78-.62,3.34-.42.56-1.47.85-3.16.85l-1.84.04h-.77s-1.66-.05-1.66-.05c-.93,0-1.64-.21-2.15-.63-.5-.42-.76-1.1-.76-2.03l-.02-1.48c0-1.62.21-2.69.62-3.19s1.4-.75,2.96-.75l1.73-.04ZM50.71,6.18l1.31.02h1.25c.69-.01,1.18-.09,1.48-.23s.45-.52.45-1.1l.02-1.08c0-.37-.02-.68-.07-.95-.04-.26-.13-.45-.27-.58-.14-.12-.34-.21-.61-.25-.27-.04-.55-.06-.86-.06h-2.42c-.55.01-.97.07-1.26.18s-.45.35-.5.72-.07.67-.07.91v.54c0,.74.09,1.24.26,1.49.17.26.6.38,1.28.38Z"/><path class="cls-1" d="M61.91,5.66c0,.33.11.53.33.62s.53.13.92.13h1.15s1.63-.04,1.63-.04c.45,0,.74-.06.88-.17s.2-.29.2-.53c0-.22-.08-.39-.23-.52-.16-.13-.45-.19-.89-.19h-.4l-4.01-.08c-.75,0-1.28-.19-1.59-.57-.31-.38-.46-.96-.46-1.75,0-.66.1-1.18.29-1.55.2-.37.55-.62,1.07-.75.52-.13,1.19-.21,2.03-.23.84-.02,1.4-.04,1.69-.04l1.7.02c.68,0,1.23.05,1.64.16.42.11.71.31.88.59s.28.55.33.78c.05.23.07.55.07.96h-2.39c0-.28-.08-.48-.25-.59-.16-.11-.39-.17-.69-.17h-1.18s-1.86.05-1.86.05c-.25,0-.46.05-.63.14s-.26.25-.26.46c0,.3.1.49.31.58.2.09.48.14.83.14h.25l1.63.02h1.61c1.03.01,1.78.17,2.25.5.47.32.7.97.7,1.95s-.21,1.59-.63,1.94c-.42.35-1.11.53-2.08.53l-3.12.08-1.63-.04c-.86,0-1.5-.14-1.91-.42s-.61-.84-.61-1.69v-.48h2.4v.13Z"/><path class="cls-1" d="M74.24,8.09V2.09h-3.58V.08h9.58v2h-3.56v6h-2.44Z"/></g></svg>